# xmcd
#
# Track frame offsets:
#	150
#	30987
#	68142
#	125466
#	190523
#	229233
#	257203
#
# Disc length: 3953 seconds
#
# Revision: 1
# Processed by: cddbd v1.5.2PL0 Copyright (c) Steve Scherf et al.
# Submitted via: audiograbber 1.83.01
#
DISCID=560f6f07
DTITLE=Mark May - In Texas Live
DYEAR=2010
DGENRE=Blues
TTITLE0=You're Leaving Baby
TTITLE1=Blue Monday
TTITLE2=Ohio
TTITLE3=In Memory of Elizabeth Reed
TTITLE4=Lights Are On But Nobody's Home
TTITLE5=Gangsta's blues
TTITLE6=Mercury Blues
EXTD=
EXTT0=
EXTT1=
EXTT2=
EXTT3=
EXTT4=
EXTT5=
EXTT6=
PLAYORDER=
